<?xml version='1.0' encoding='UTF-8' standalone='no'?>
<svg width="576pt" xmlns:xlink="http://www.w3.org/1999/xlink" xmlns="http://www.w3.org/2000/svg" viewBox="0 0 576 432" height="432pt">
 <title>gl2ps_renderer figure</title>
 <desc>
Creator: GL2PS 1.4.0, (C) 1999-2017 C. Geuzaine
For: Octave
CreationDate: Mon Jun 01 16:14:31 2020
</desc>
 <defs/>
 <polygon points="0,0 576,0 576,432 0,432" fill="#ffffff"/>
 <g>
  <polygon points="0,432 576,432 576,0 0,0" shape-rendering="crispEdges" fill="#ffffff"/>
  <clipPath id="cp00576432">
   <polygon points="0,432 576,432 576,0 0,0"/>
  </clipPath>
  <g clip-path="url(#cp00576432)">
   <polygon points="74.88,114.379 521.28,114.379 521.28,32.4 74.88,32.4" shape-rendering="crispEdges" fill="#ffffff"/>
   <polyline stroke-width="0.5" points="74.88,114.379 74.88,32.4" stroke-linejoin="miter" stroke-opacity="0.15" stroke="#262626" stroke-dasharray="16,0" fill="none" stroke-linecap="butt"/>
   <polyline stroke-width="0.5" points="164.16,114.379 164.16,32.4" stroke-linejoin="miter" stroke-opacity="0.15" stroke="#262626" stroke-dasharray="16,0" fill="none" stroke-linecap="butt"/>
   <polyline stroke-width="0.5" points="253.44,114.379 253.44,32.4" stroke-linejoin="miter" stroke-opacity="0.15" stroke="#262626" stroke-dasharray="16,0" fill="none" stroke-linecap="butt"/>
   <polyline stroke-width="0.5" points="342.72,114.379 342.72,32.4" stroke-linejoin="miter" stroke-opacity="0.15" stroke="#262626" stroke-dasharray="16,0" fill="none" stroke-linecap="butt"/>
   <polyline stroke-width="0.5" points="432,114.379 432,32.4" stroke-linejoin="miter" stroke-opacity="0.15" stroke="#262626" stroke-dasharray="16,0" fill="none" stroke-linecap="butt"/>
   <polyline stroke-width="0.5" points="521.28,114.379 521.28,32.4" stroke-linejoin="miter" stroke-opacity="0.15" stroke="#262626" stroke-dasharray="16,0" fill="none" stroke-linecap="butt"/>
   <polyline stroke-width="0.5" points="74.88,114.379 74.88,109.916" stroke-linejoin="miter" stroke="#262626" fill="none" stroke-linecap="butt"/>
   <polyline stroke-width="0.5" points="74.88,32.4 74.88,36.8629" stroke-linejoin="miter" stroke="#262626" fill="none" stroke-linecap="butt"/>
   <polyline stroke-width="0.5" points="164.16,114.379 164.16,109.916" stroke-linejoin="miter" stroke="#262626" fill="none" stroke-linecap="butt"/>
   <polyline stroke-width="0.5" points="164.16,32.4 164.16,36.8629" stroke-linejoin="miter" stroke="#262626" fill="none" stroke-linecap="butt"/>
   <polyline stroke-width="0.5" points="253.44,114.379 253.44,109.916" stroke-linejoin="miter" stroke="#262626" fill="none" stroke-linecap="butt"/>
   <polyline stroke-width="0.5" points="253.44,32.4 253.44,36.8629" stroke-linejoin="miter" stroke="#262626" fill="none" stroke-linecap="butt"/>
   <polyline stroke-width="0.5" points="342.72,114.379 342.72,109.916" stroke-linejoin="miter" stroke="#262626" fill="none" stroke-linecap="butt"/>
   <polyline stroke-width="0.5" points="342.72,32.4 342.72,36.8629" stroke-linejoin="miter" stroke="#262626" fill="none" stroke-linecap="butt"/>
   <polyline stroke-width="0.5" points="432,114.379 432,109.916" stroke-linejoin="miter" stroke="#262626" fill="none" stroke-linecap="butt"/>
   <polyline stroke-width="0.5" points="432,32.4 432,36.8629" stroke-linejoin="miter" stroke="#262626" fill="none" stroke-linecap="butt"/>
   <polyline stroke-width="0.5" points="521.28,114.379 521.28,109.916" stroke-linejoin="miter" stroke="#262626" fill="none" stroke-linecap="butt"/>
   <polyline stroke-width="0.5" points="521.28,32.4 521.28,36.8629" stroke-linejoin="miter" stroke="#262626" fill="none" stroke-linecap="butt"/>
   <text font-size="10" font-weight="normal" font-style="normal" xml:space="preserve" font-family="FreeSans" transform="translate(71.88,129.877) rotate(-0,3,-8)">
    <tspan y="-0" x="0 " fill="rgb(38,38,38)">0</tspan>
   </text>
   <text font-size="10" font-weight="normal" font-style="normal" xml:space="preserve" font-family="FreeSans" transform="translate(156.66,129.877) rotate(-0,7.5,-8)">
    <tspan y="-0" x="0 6 9 " fill="rgb(38,38,38)">0.2</tspan>
   </text>
   <text font-size="10" font-weight="normal" font-style="normal" xml:space="preserve" font-family="FreeSans" transform="translate(245.94,129.877) rotate(-0,7.5,-8)">
    <tspan y="-0" x="0 6 9 " fill="rgb(38,38,38)">0.4</tspan>
   </text>
   <text font-size="10" font-weight="normal" font-style="normal" xml:space="preserve" font-family="FreeSans" transform="translate(335.22,129.877) rotate(-0,7.5,-8)">
    <tspan y="-0" x="0 6 9 " fill="rgb(38,38,38)">0.6</tspan>
   </text>
   <text font-size="10" font-weight="normal" font-style="normal" xml:space="preserve" font-family="FreeSans" transform="translate(424.5,129.877) rotate(-0,7.5,-8)">
    <tspan y="-0" x="0 6 9 " fill="rgb(38,38,38)">0.8</tspan>
   </text>
   <text font-size="10" font-weight="normal" font-style="normal" xml:space="preserve" font-family="FreeSans" transform="translate(518.28,129.877) rotate(-0,3,-8)">
    <tspan y="-0" x="0 " fill="rgb(38,38,38)">1</tspan>
   </text>
   <polyline stroke-width="0.5" points="74.88,109.404 521.28,109.404" stroke-linejoin="miter" stroke-opacity="0.15" stroke="#262626" stroke-dasharray="16,0" fill="none" stroke-linecap="butt"/>
   <polyline stroke-width="0.5" points="74.88,94.7481 521.28,94.7481" stroke-linejoin="miter" stroke-opacity="0.15" stroke="#262626" stroke-dasharray="16,0" fill="none" stroke-linecap="butt"/>
   <polyline stroke-width="0.5" points="74.88,80.0927 521.28,80.0927" stroke-linejoin="miter" stroke-opacity="0.15" stroke="#262626" stroke-dasharray="16,0" fill="none" stroke-linecap="butt"/>
   <polyline stroke-width="0.5" points="74.88,65.4372 521.28,65.4372" stroke-linejoin="miter" stroke-opacity="0.15" stroke="#262626" stroke-dasharray="16,0" fill="none" stroke-linecap="butt"/>
   <polyline stroke-width="0.5" points="74.88,50.7817 521.28,50.7817" stroke-linejoin="miter" stroke-opacity="0.15" stroke="#262626" stroke-dasharray="16,0" fill="none" stroke-linecap="butt"/>
   <polyline stroke-width="0.5" points="74.88,36.1263 521.28,36.1263" stroke-linejoin="miter" stroke-opacity="0.15" stroke="#262626" stroke-dasharray="16,0" fill="none" stroke-linecap="butt"/>
   <polyline stroke-width="0.5" points="74.88,109.404 79.348,109.404" stroke-linejoin="miter" stroke="#262626" fill="none" stroke-linecap="butt"/>
   <polyline stroke-width="0.5" points="521.28,109.404 516.812,109.404" stroke-linejoin="miter" stroke="#262626" fill="none" stroke-linecap="butt"/>
   <polyline stroke-width="0.5" points="74.88,94.7481 79.348,94.7481" stroke-linejoin="miter" stroke="#262626" fill="none" stroke-linecap="butt"/>
   <polyline stroke-width="0.5" points="521.28,94.7481 516.812,94.7481" stroke-linejoin="miter" stroke="#262626" fill="none" stroke-linecap="butt"/>
   <polyline stroke-width="0.5" points="74.88,80.0927 79.348,80.0927" stroke-linejoin="miter" stroke="#262626" fill="none" stroke-linecap="butt"/>
   <polyline stroke-width="0.5" points="521.28,80.0927 516.812,80.0927" stroke-linejoin="miter" stroke="#262626" fill="none" stroke-linecap="butt"/>
   <polyline stroke-width="0.5" points="74.88,65.4372 79.348,65.4372" stroke-linejoin="miter" stroke="#262626" fill="none" stroke-linecap="butt"/>
   <polyline stroke-width="0.5" points="521.28,65.4372 516.812,65.4372" stroke-linejoin="miter" stroke="#262626" fill="none" stroke-linecap="butt"/>
   <polyline stroke-width="0.5" points="74.88,50.7817 79.348,50.7817" stroke-linejoin="miter" stroke="#262626" fill="none" stroke-linecap="butt"/>
   <polyline stroke-width="0.5" points="521.28,50.7817 516.812,50.7817" stroke-linejoin="miter" stroke="#262626" fill="none" stroke-linecap="butt"/>
   <polyline stroke-width="0.5" points="74.88,36.1263 79.348,36.1263" stroke-linejoin="miter" stroke="#262626" fill="none" stroke-linecap="butt"/>
   <polyline stroke-width="0.5" points="521.28,36.1263 516.812,36.1263" stroke-linejoin="miter" stroke="#262626" fill="none" stroke-linecap="butt"/>
   <text font-size="10" font-weight="normal" font-style="normal" xml:space="preserve" font-family="FreeSans" transform="translate(63.8755,113.404) rotate(-0,6,-4)">
    <tspan y="-0" x="0 " fill="rgb(38,38,38)">0</tspan>
   </text>
   <text font-size="10" font-weight="normal" font-style="normal" xml:space="preserve" font-family="FreeSans" transform="translate(54.8755,98.7481) rotate(-0,15,-4)">
    <tspan y="-0" x="0 6 9 " fill="rgb(38,38,38)">0.2</tspan>
   </text>
   <text font-size="10" font-weight="normal" font-style="normal" xml:space="preserve" font-family="FreeSans" transform="translate(54.8755,84.0926) rotate(-0,15,-4)">
    <tspan y="-0" x="0 6 9 " fill="rgb(38,38,38)">0.4</tspan>
   </text>
   <text font-size="10" font-weight="normal" font-style="normal" xml:space="preserve" font-family="FreeSans" transform="translate(54.8755,69.4372) rotate(-0,15,-4)">
    <tspan y="-0" x="0 6 9 " fill="rgb(38,38,38)">0.6</tspan>
   </text>
   <text font-size="10" font-weight="normal" font-style="normal" xml:space="preserve" font-family="FreeSans" transform="translate(54.8755,54.7818) rotate(-0,15,-4)">
    <tspan y="-0" x="0 6 9 " fill="rgb(38,38,38)">0.8</tspan>
   </text>
   <text font-size="10" font-weight="normal" font-style="normal" xml:space="preserve" font-family="FreeSans" transform="translate(63.8755,40.1263) rotate(-0,6,-4)">
    <tspan y="-0" x="0 " fill="rgb(38,38,38)">1</tspan>
   </text>
   <polyline stroke-width="0.5" points="74.88,114.379 521.28,114.379" stroke-linejoin="miter" stroke="#262626" stroke-dasharray="16,0" fill="none" stroke-linecap="square"/>
   <polyline stroke-width="0.5" points="74.88,32.4 521.28,32.4" stroke-linejoin="miter" stroke="#262626" stroke-dasharray="16,0" fill="none" stroke-linecap="square"/>
   <polyline stroke-width="0.5" points="74.88,114.379 74.88,32.4" stroke-linejoin="miter" stroke="#262626" stroke-dasharray="16,0" fill="none" stroke-linecap="square"/>
   <polyline stroke-width="0.5" points="521.28,114.379 521.28,32.4" stroke-linejoin="miter" stroke="#262626" stroke-dasharray="16,0" fill="none" stroke-linecap="square"/>
   <text font-size="11" font-weight="bold" font-style="normal" xml:space="preserve" font-family="FreeSans" transform="translate(258.08,22.4) rotate(-0,40,0)">
    <tspan y="-3" x="0 7 11 17 24 27 35 41 47 54 61 68 74 " fill="rgb(0,0,0)">Step Response</tspan>
   </text>
   <text font-size="11" font-weight="normal" font-style="normal" xml:space="preserve" font-family="FreeSans" transform="translate(42.8755,73.3894) rotate(-90,7,0)">
    <tspan y="-0" x="0 6 10 " fill="rgb(38,38,38)">err</tspan>
   </text>
   <polyline stroke-width="0.5" points="74.88,36.1263 83.808,36.6746 92.736,38.1768 101.664,40.4381 110.592,43.2884 119.52,46.5794 128.448,50.1836 137.376,53.992 146.304,57.9124 155.232,61.8678 164.16,65.7944 173.088,69.6406 182.016,73.3653 190.944,76.9365 199.872,80.3303 208.8,83.5297 217.728,86.5236 226.656,89.3058 235.584,91.8745 244.512,94.2312 253.44,96.3801 262.368,98.3277 271.296,100.082 280.224,101.654 289.152,103.052 298.08,104.289 307.008,105.375 315.936,106.322 324.864,107.142 333.792,107.846 342.72,108.445 351.648,108.948 360.576,109.367 369.504,109.71 378.432,109.986 387.36,110.204 396.288,110.37 405.216,110.492 414.144,110.575 423.072,110.627 432,110.651 440.928,110.653 449.856,110.636 458.784,110.604 467.712,110.56 476.64,110.507 485.568,110.448 494.496,110.384 503.424,110.317 512.352,110.25 521.28,110.182" stroke-linejoin="round" stroke="#0071bc" fill="none" stroke-linecap="butt"/>
  </g>
  <clipPath id="cp00576432">
   <polygon points="0,432 576,432 576,0 0,0"/>
  </clipPath>
  <g clip-path="url(#cp00576432)">
   <polygon points="74.88,249.429 521.28,249.429 521.28,167.451 74.88,167.451" shape-rendering="crispEdges" fill="#ffffff"/>
   <polyline stroke-width="0.5" points="74.88,249.429 74.88,167.451" stroke-linejoin="miter" stroke-opacity="0.15" stroke="#262626" stroke-dasharray="16,0" fill="none" stroke-linecap="butt"/>
   <polyline stroke-width="0.5" points="164.16,249.429 164.16,167.451" stroke-linejoin="miter" stroke-opacity="0.15" stroke="#262626" stroke-dasharray="16,0" fill="none" stroke-linecap="butt"/>
   <polyline stroke-width="0.5" points="253.44,249.429 253.44,167.451" stroke-linejoin="miter" stroke-opacity="0.15" stroke="#262626" stroke-dasharray="16,0" fill="none" stroke-linecap="butt"/>
   <polyline stroke-width="0.5" points="342.72,249.429 342.72,167.451" stroke-linejoin="miter" stroke-opacity="0.15" stroke="#262626" stroke-dasharray="16,0" fill="none" stroke-linecap="butt"/>
   <polyline stroke-width="0.5" points="432,249.429 432,167.451" stroke-linejoin="miter" stroke-opacity="0.15" stroke="#262626" stroke-dasharray="16,0" fill="none" stroke-linecap="butt"/>
   <polyline stroke-width="0.5" points="521.28,249.429 521.28,167.451" stroke-linejoin="miter" stroke-opacity="0.15" stroke="#262626" stroke-dasharray="16,0" fill="none" stroke-linecap="butt"/>
   <polyline stroke-width="0.5" points="74.88,249.429 74.88,244.967" stroke-linejoin="miter" stroke="#262626" fill="none" stroke-linecap="butt"/>
   <polyline stroke-width="0.5" points="74.88,167.451 74.88,171.913" stroke-linejoin="miter" stroke="#262626" fill="none" stroke-linecap="butt"/>
   <polyline stroke-width="0.5" points="164.16,249.429 164.16,244.967" stroke-linejoin="miter" stroke="#262626" fill="none" stroke-linecap="butt"/>
   <polyline stroke-width="0.5" points="164.16,167.451 164.16,171.913" stroke-linejoin="miter" stroke="#262626" fill="none" stroke-linecap="butt"/>
   <polyline stroke-width="0.5" points="253.44,249.429 253.44,244.967" stroke-linejoin="miter" stroke="#262626" fill="none" stroke-linecap="butt"/>
   <polyline stroke-width="0.5" points="253.44,167.451 253.44,171.913" stroke-linejoin="miter" stroke="#262626" fill="none" stroke-linecap="butt"/>
   <polyline stroke-width="0.5" points="342.72,249.429 342.72,244.967" stroke-linejoin="miter" stroke="#262626" fill="none" stroke-linecap="butt"/>
   <polyline stroke-width="0.5" points="342.72,167.451 342.72,171.913" stroke-linejoin="miter" stroke="#262626" fill="none" stroke-linecap="butt"/>
   <polyline stroke-width="0.5" points="432,249.429 432,244.967" stroke-linejoin="miter" stroke="#262626" fill="none" stroke-linecap="butt"/>
   <polyline stroke-width="0.5" points="432,167.451 432,171.913" stroke-linejoin="miter" stroke="#262626" fill="none" stroke-linecap="butt"/>
   <polyline stroke-width="0.5" points="521.28,249.429 521.28,244.967" stroke-linejoin="miter" stroke="#262626" fill="none" stroke-linecap="butt"/>
   <polyline stroke-width="0.5" points="521.28,167.451 521.28,171.913" stroke-linejoin="miter" stroke="#262626" fill="none" stroke-linecap="butt"/>
   <text font-size="10" font-weight="normal" font-style="normal" xml:space="preserve" font-family="FreeSans" transform="translate(71.88,264.928) rotate(-0,3,-8)">
    <tspan y="-0" x="0 " fill="rgb(38,38,38)">0</tspan>
   </text>
   <text font-size="10" font-weight="normal" font-style="normal" xml:space="preserve" font-family="FreeSans" transform="translate(156.66,264.928) rotate(-0,7.5,-8)">
    <tspan y="-0" x="0 6 9 " fill="rgb(38,38,38)">0.2</tspan>
   </text>
   <text font-size="10" font-weight="normal" font-style="normal" xml:space="preserve" font-family="FreeSans" transform="translate(245.94,264.928) rotate(-0,7.5,-8)">
    <tspan y="-0" x="0 6 9 " fill="rgb(38,38,38)">0.4</tspan>
   </text>
   <text font-size="10" font-weight="normal" font-style="normal" xml:space="preserve" font-family="FreeSans" transform="translate(335.22,264.928) rotate(-0,7.5,-8)">
    <tspan y="-0" x="0 6 9 " fill="rgb(38,38,38)">0.6</tspan>
   </text>
   <text font-size="10" font-weight="normal" font-style="normal" xml:space="preserve" font-family="FreeSans" transform="translate(424.5,264.928) rotate(-0,7.5,-8)">
    <tspan y="-0" x="0 6 9 " fill="rgb(38,38,38)">0.8</tspan>
   </text>
   <text font-size="10" font-weight="normal" font-style="normal" xml:space="preserve" font-family="FreeSans" transform="translate(518.28,264.928) rotate(-0,3,-8)">
    <tspan y="-0" x="0 " fill="rgb(38,38,38)">1</tspan>
   </text>
   <polyline stroke-width="0.5" points="74.88,244.496 521.28,244.496" stroke-linejoin="miter" stroke-opacity="0.15" stroke="#262626" stroke-dasharray="16,0" fill="none" stroke-linecap="butt"/>
   <polyline stroke-width="0.5" points="74.88,231.372 521.28,231.372" stroke-linejoin="miter" stroke-opacity="0.15" stroke="#262626" stroke-dasharray="16,0" fill="none" stroke-linecap="butt"/>
   <polyline stroke-width="0.5" points="74.88,218.249 521.28,218.249" stroke-linejoin="miter" stroke-opacity="0.15" stroke="#262626" stroke-dasharray="16,0" fill="none" stroke-linecap="butt"/>
   <polyline stroke-width="0.5" points="74.88,205.125 521.28,205.125" stroke-linejoin="miter" stroke-opacity="0.15" stroke="#262626" stroke-dasharray="16,0" fill="none" stroke-linecap="butt"/>
   <polyline stroke-width="0.5" points="74.88,192.001 521.28,192.001" stroke-linejoin="miter" stroke-opacity="0.15" stroke="#262626" stroke-dasharray="16,0" fill="none" stroke-linecap="butt"/>
   <polyline stroke-width="0.5" points="74.88,178.878 521.28,178.878" stroke-linejoin="miter" stroke-opacity="0.15" stroke="#262626" stroke-dasharray="16,0" fill="none" stroke-linecap="butt"/>
   <polyline stroke-width="0.5" points="74.88,244.496 79.348,244.496" stroke-linejoin="miter" stroke="#262626" fill="none" stroke-linecap="butt"/>
   <polyline stroke-width="0.5" points="521.28,244.496 516.812,244.496" stroke-linejoin="miter" stroke="#262626" fill="none" stroke-linecap="butt"/>
   <polyline stroke-width="0.5" points="74.88,231.372 79.348,231.372" stroke-linejoin="miter" stroke="#262626" fill="none" stroke-linecap="butt"/>
   <polyline stroke-width="0.5" points="521.28,231.372 516.812,231.372" stroke-linejoin="miter" stroke="#262626" fill="none" stroke-linecap="butt"/>
   <polyline stroke-width="0.5" points="74.88,218.249 79.348,218.249" stroke-linejoin="miter" stroke="#262626" fill="none" stroke-linecap="butt"/>
   <polyline stroke-width="0.5" points="521.28,218.249 516.812,218.249" stroke-linejoin="miter" stroke="#262626" fill="none" stroke-linecap="butt"/>
   <polyline stroke-width="0.5" points="74.88,205.125 79.348,205.125" stroke-linejoin="miter" stroke="#262626" fill="none" stroke-linecap="butt"/>
   <polyline stroke-width="0.5" points="521.28,205.125 516.812,205.125" stroke-linejoin="miter" stroke="#262626" fill="none" stroke-linecap="butt"/>
   <polyline stroke-width="0.5" points="74.88,192.001 79.348,192.001" stroke-linejoin="miter" stroke="#262626" fill="none" stroke-linecap="butt"/>
   <polyline stroke-width="0.5" points="521.28,192.001 516.812,192.001" stroke-linejoin="miter" stroke="#262626" fill="none" stroke-linecap="butt"/>
   <polyline stroke-width="0.5" points="74.88,178.878 79.348,178.878" stroke-linejoin="miter" stroke="#262626" fill="none" stroke-linecap="butt"/>
   <polyline stroke-width="0.5" points="521.28,178.878 516.812,178.878" stroke-linejoin="miter" stroke="#262626" fill="none" stroke-linecap="butt"/>
   <text font-size="10" font-weight="normal" font-style="normal" xml:space="preserve" font-family="FreeSans" transform="translate(57.8755,248.496) rotate(-0,12,-4)">
    <tspan y="-0" x="0 6 " fill="rgb(38,38,38)">10</tspan>
   </text>
   <text font-size="10" font-weight="normal" font-style="normal" xml:space="preserve" font-family="FreeSans" transform="translate(57.8755,235.372) rotate(-0,12,-4)">
    <tspan y="-0" x="0 6 " fill="rgb(38,38,38)">12</tspan>
   </text>
   <text font-size="10" font-weight="normal" font-style="normal" xml:space="preserve" font-family="FreeSans" transform="translate(57.8755,222.249) rotate(-0,12,-4)">
    <tspan y="-0" x="0 6 " fill="rgb(38,38,38)">14</tspan>
   </text>
   <text font-size="10" font-weight="normal" font-style="normal" xml:space="preserve" font-family="FreeSans" transform="translate(57.8755,209.125) rotate(-0,12,-4)">
    <tspan y="-0" x="0 6 " fill="rgb(38,38,38)">16</tspan>
   </text>
   <text font-size="10" font-weight="normal" font-style="normal" xml:space="preserve" font-family="FreeSans" transform="translate(57.8755,196.001) rotate(-0,12,-4)">
    <tspan y="-0" x="0 6 " fill="rgb(38,38,38)">18</tspan>
   </text>
   <text font-size="10" font-weight="normal" font-style="normal" xml:space="preserve" font-family="FreeSans" transform="translate(57.8755,182.878) rotate(-0,12,-4)">
    <tspan y="-0" x="0 6 " fill="rgb(38,38,38)">20</tspan>
   </text>
   <polyline stroke-width="0.5" points="74.88,249.429 521.28,249.429" stroke-linejoin="miter" stroke="#262626" stroke-dasharray="16,0" fill="none" stroke-linecap="square"/>
   <polyline stroke-width="0.5" points="74.88,167.451 521.28,167.451" stroke-linejoin="miter" stroke="#262626" stroke-dasharray="16,0" fill="none" stroke-linecap="square"/>
   <polyline stroke-width="0.5" points="74.88,249.429 74.88,167.451" stroke-linejoin="miter" stroke="#262626" stroke-dasharray="16,0" fill="none" stroke-linecap="square"/>
   <polyline stroke-width="0.5" points="521.28,249.429 521.28,167.451" stroke-linejoin="miter" stroke="#262626" stroke-dasharray="16,0" fill="none" stroke-linecap="square"/>
   <text font-size="11" font-weight="normal" font-style="normal" xml:space="preserve" font-family="FreeSans" transform="translate(35.8755,208.44) rotate(-90,17,0)">
    <tspan y="-2" x="0 5 11 13 16 22 28 " fill="rgb(38,38,38)">voltage</tspan>
   </text>
   <polyline stroke-width="0.5" points="74.88,178.878 83.808,174.624 92.736,172.152 101.664,171.177 110.592,171.44 119.52,172.713 128.448,174.795 137.376,177.509 146.304,180.701 155.232,184.238 164.16,188.006 173.088,191.908 182.016,195.865 190.944,199.808 199.872,203.683 208.8,207.446 217.728,211.063 226.656,214.508 235.584,217.761 244.512,220.812 253.44,223.652 262.368,226.278 271.296,228.691 280.224,230.895 289.152,232.895 298.08,234.7 307.008,236.319 315.936,237.762 324.864,239.04 333.792,240.164 342.72,241.147 351.648,241.998 360.576,242.731 369.504,243.356 378.432,243.882 387.36,244.322 396.288,244.683 405.216,244.975 414.144,245.206 423.072,245.384 432,245.516 440.928,245.609 449.856,245.667 458.784,245.697 467.712,245.703 476.64,245.69 485.568,245.661 494.496,245.619 503.424,245.567 512.352,245.509 521.28,245.445" stroke-linejoin="round" stroke="#0071bc" fill="none" stroke-linecap="butt"/>
  </g>
  <clipPath id="cp00576432">
   <polygon points="0,432 576,432 576,0 0,0"/>
  </clipPath>
  <g clip-path="url(#cp00576432)">
   <polygon points="74.88,384.48 521.28,384.48 521.28,302.501 74.88,302.501" shape-rendering="crispEdges" fill="#ffffff"/>
   <polyline stroke-width="0.5" points="74.88,384.48 74.88,302.501" stroke-linejoin="miter" stroke-opacity="0.15" stroke="#262626" stroke-dasharray="16,0" fill="none" stroke-linecap="butt"/>
   <polyline stroke-width="0.5" points="164.16,384.48 164.16,302.501" stroke-linejoin="miter" stroke-opacity="0.15" stroke="#262626" stroke-dasharray="16,0" fill="none" stroke-linecap="butt"/>
   <polyline stroke-width="0.5" points="253.44,384.48 253.44,302.501" stroke-linejoin="miter" stroke-opacity="0.15" stroke="#262626" stroke-dasharray="16,0" fill="none" stroke-linecap="butt"/>
   <polyline stroke-width="0.5" points="342.72,384.48 342.72,302.501" stroke-linejoin="miter" stroke-opacity="0.15" stroke="#262626" stroke-dasharray="16,0" fill="none" stroke-linecap="butt"/>
   <polyline stroke-width="0.5" points="432,384.48 432,302.501" stroke-linejoin="miter" stroke-opacity="0.15" stroke="#262626" stroke-dasharray="16,0" fill="none" stroke-linecap="butt"/>
   <polyline stroke-width="0.5" points="521.28,384.48 521.28,302.501" stroke-linejoin="miter" stroke-opacity="0.15" stroke="#262626" stroke-dasharray="16,0" fill="none" stroke-linecap="butt"/>
   <polyline stroke-width="0.5" points="74.88,384.48 74.88,380.017" stroke-linejoin="miter" stroke="#262626" fill="none" stroke-linecap="butt"/>
   <polyline stroke-width="0.5" points="74.88,302.501 74.88,306.964" stroke-linejoin="miter" stroke="#262626" fill="none" stroke-linecap="butt"/>
   <polyline stroke-width="0.5" points="164.16,384.48 164.16,380.017" stroke-linejoin="miter" stroke="#262626" fill="none" stroke-linecap="butt"/>
   <polyline stroke-width="0.5" points="164.16,302.501 164.16,306.964" stroke-linejoin="miter" stroke="#262626" fill="none" stroke-linecap="butt"/>
   <polyline stroke-width="0.5" points="253.44,384.48 253.44,380.017" stroke-linejoin="miter" stroke="#262626" fill="none" stroke-linecap="butt"/>
   <polyline stroke-width="0.5" points="253.44,302.501 253.44,306.964" stroke-linejoin="miter" stroke="#262626" fill="none" stroke-linecap="butt"/>
   <polyline stroke-width="0.5" points="342.72,384.48 342.72,380.017" stroke-linejoin="miter" stroke="#262626" fill="none" stroke-linecap="butt"/>
   <polyline stroke-width="0.5" points="342.72,302.501 342.72,306.964" stroke-linejoin="miter" stroke="#262626" fill="none" stroke-linecap="butt"/>
   <polyline stroke-width="0.5" points="432,384.48 432,380.017" stroke-linejoin="miter" stroke="#262626" fill="none" stroke-linecap="butt"/>
   <polyline stroke-width="0.5" points="432,302.501 432,306.964" stroke-linejoin="miter" stroke="#262626" fill="none" stroke-linecap="butt"/>
   <polyline stroke-width="0.5" points="521.28,384.48 521.28,380.017" stroke-linejoin="miter" stroke="#262626" fill="none" stroke-linecap="butt"/>
   <polyline stroke-width="0.5" points="521.28,302.501 521.28,306.964" stroke-linejoin="miter" stroke="#262626" fill="none" stroke-linecap="butt"/>
   <text font-size="10" font-weight="normal" font-style="normal" xml:space="preserve" font-family="FreeSans" transform="translate(71.88,399.978) rotate(-0,3,-8)">
    <tspan y="-0" x="0 " fill="rgb(38,38,38)">0</tspan>
   </text>
   <text font-size="10" font-weight="normal" font-style="normal" xml:space="preserve" font-family="FreeSans" transform="translate(156.66,399.978) rotate(-0,7.5,-8)">
    <tspan y="-0" x="0 6 9 " fill="rgb(38,38,38)">0.2</tspan>
   </text>
   <text font-size="10" font-weight="normal" font-style="normal" xml:space="preserve" font-family="FreeSans" transform="translate(245.94,399.978) rotate(-0,7.5,-8)">
    <tspan y="-0" x="0 6 9 " fill="rgb(38,38,38)">0.4</tspan>
   </text>
   <text font-size="10" font-weight="normal" font-style="normal" xml:space="preserve" font-family="FreeSans" transform="translate(335.22,399.978) rotate(-0,7.5,-8)">
    <tspan y="-0" x="0 6 9 " fill="rgb(38,38,38)">0.6</tspan>
   </text>
   <text font-size="10" font-weight="normal" font-style="normal" xml:space="preserve" font-family="FreeSans" transform="translate(424.5,399.978) rotate(-0,7.5,-8)">
    <tspan y="-0" x="0 6 9 " fill="rgb(38,38,38)">0.8</tspan>
   </text>
   <text font-size="10" font-weight="normal" font-style="normal" xml:space="preserve" font-family="FreeSans" transform="translate(518.28,399.978) rotate(-0,3,-8)">
    <tspan y="-0" x="0 " fill="rgb(38,38,38)">1</tspan>
   </text>
   <polyline stroke-width="0.5" points="74.88,380.754 521.28,380.754" stroke-linejoin="miter" stroke-opacity="0.15" stroke="#262626" stroke-dasharray="16,0" fill="none" stroke-linecap="butt"/>
   <polyline stroke-width="0.5" points="74.88,366.098 521.28,366.098" stroke-linejoin="miter" stroke-opacity="0.15" stroke="#262626" stroke-dasharray="16,0" fill="none" stroke-linecap="butt"/>
   <polyline stroke-width="0.5" points="74.88,351.443 521.28,351.443" stroke-linejoin="miter" stroke-opacity="0.15" stroke="#262626" stroke-dasharray="16,0" fill="none" stroke-linecap="butt"/>
   <polyline stroke-width="0.5" points="74.88,336.787 521.28,336.787" stroke-linejoin="miter" stroke-opacity="0.15" stroke="#262626" stroke-dasharray="16,0" fill="none" stroke-linecap="butt"/>
   <polyline stroke-width="0.5" points="74.88,322.132 521.28,322.132" stroke-linejoin="miter" stroke-opacity="0.15" stroke="#262626" stroke-dasharray="16,0" fill="none" stroke-linecap="butt"/>
   <polyline stroke-width="0.5" points="74.88,307.477 521.28,307.477" stroke-linejoin="miter" stroke-opacity="0.15" stroke="#262626" stroke-dasharray="16,0" fill="none" stroke-linecap="butt"/>
   <polyline stroke-width="0.5" points="74.88,380.754 79.348,380.754" stroke-linejoin="miter" stroke="#262626" fill="none" stroke-linecap="butt"/>
   <polyline stroke-width="0.5" points="521.28,380.754 516.812,380.754" stroke-linejoin="miter" stroke="#262626" fill="none" stroke-linecap="butt"/>
   <polyline stroke-width="0.5" points="74.88,366.098 79.348,366.098" stroke-linejoin="miter" stroke="#262626" fill="none" stroke-linecap="butt"/>
   <polyline stroke-width="0.5" points="521.28,366.098 516.812,366.098" stroke-linejoin="miter" stroke="#262626" fill="none" stroke-linecap="butt"/>
   <polyline stroke-width="0.5" points="74.88,351.443 79.348,351.443" stroke-linejoin="miter" stroke="#262626" fill="none" stroke-linecap="butt"/>
   <polyline stroke-width="0.5" points="521.28,351.443 516.812,351.443" stroke-linejoin="miter" stroke="#262626" fill="none" stroke-linecap="butt"/>
   <polyline stroke-width="0.5" points="74.88,336.787 79.348,336.787" stroke-linejoin="miter" stroke="#262626" fill="none" stroke-linecap="butt"/>
   <polyline stroke-width="0.5" points="521.28,336.787 516.812,336.787" stroke-linejoin="miter" stroke="#262626" fill="none" stroke-linecap="butt"/>
   <polyline stroke-width="0.5" points="74.88,322.132 79.348,322.132" stroke-linejoin="miter" stroke="#262626" fill="none" stroke-linecap="butt"/>
   <polyline stroke-width="0.5" points="521.28,322.132 516.812,322.132" stroke-linejoin="miter" stroke="#262626" fill="none" stroke-linecap="butt"/>
   <polyline stroke-width="0.5" points="74.88,307.477 79.348,307.477" stroke-linejoin="miter" stroke="#262626" fill="none" stroke-linecap="butt"/>
   <polyline stroke-width="0.5" points="521.28,307.477 516.812,307.477" stroke-linejoin="miter" stroke="#262626" fill="none" stroke-linecap="butt"/>
   <text font-size="10" font-weight="normal" font-style="normal" xml:space="preserve" font-family="FreeSans" transform="translate(63.8755,384.754) rotate(-0,6,-4)">
    <tspan y="-0" x="0 " fill="rgb(38,38,38)">0</tspan>
   </text>
   <text font-size="10" font-weight="normal" font-style="normal" xml:space="preserve" font-family="FreeSans" transform="translate(54.8755,370.098) rotate(-0,15,-4)">
    <tspan y="-0" x="0 6 9 " fill="rgb(38,38,38)">0.2</tspan>
   </text>
   <text font-size="10" font-weight="normal" font-style="normal" xml:space="preserve" font-family="FreeSans" transform="translate(54.8755,355.443) rotate(-0,15,-4)">
    <tspan y="-0" x="0 6 9 " fill="rgb(38,38,38)">0.4</tspan>
   </text>
   <text font-size="10" font-weight="normal" font-style="normal" xml:space="preserve" font-family="FreeSans" transform="translate(54.8755,340.787) rotate(-0,15,-4)">
    <tspan y="-0" x="0 6 9 " fill="rgb(38,38,38)">0.6</tspan>
   </text>
   <text font-size="10" font-weight="normal" font-style="normal" xml:space="preserve" font-family="FreeSans" transform="translate(54.8755,326.132) rotate(-0,15,-4)">
    <tspan y="-0" x="0 6 9 " fill="rgb(38,38,38)">0.8</tspan>
   </text>
   <text font-size="10" font-weight="normal" font-style="normal" xml:space="preserve" font-family="FreeSans" transform="translate(63.8755,311.476) rotate(-0,6,-4)">
    <tspan y="-0" x="0 " fill="rgb(38,38,38)">1</tspan>
   </text>
   <polyline stroke-width="0.5" points="74.88,384.48 521.28,384.48" stroke-linejoin="miter" stroke="#262626" stroke-dasharray="16,0" fill="none" stroke-linecap="square"/>
   <polyline stroke-width="0.5" points="74.88,302.501 521.28,302.501" stroke-linejoin="miter" stroke="#262626" stroke-dasharray="16,0" fill="none" stroke-linecap="square"/>
   <polyline stroke-width="0.5" points="74.88,384.48 74.88,302.501" stroke-linejoin="miter" stroke="#262626" stroke-dasharray="16,0" fill="none" stroke-linecap="square"/>
   <polyline stroke-width="0.5" points="521.28,384.48 521.28,302.501" stroke-linejoin="miter" stroke="#262626" stroke-dasharray="16,0" fill="none" stroke-linecap="square"/>
   <text font-size="11" font-weight="normal" font-style="normal" xml:space="preserve" font-family="FreeSans" transform="translate(37.8755,343.491) rotate(-90,12,0)">
    <tspan y="-1" x="0 4 10 16 19 " fill="rgb(38,38,38)">rad/s</tspan>
   </text>
   <text font-size="11" font-weight="normal" font-style="normal" xml:space="preserve" font-family="FreeSans" transform="translate(279.08,415.978) rotate(-0,19,-11)">
    <tspan y="-2" x="0 7 9 18 24 27 30 35 " fill="rgb(38,38,38)">Time [s]</tspan>
   </text>
   <polyline stroke-width="0.5" points="74.88,380.754 83.808,380.205 92.736,378.703 101.664,376.442 110.592,373.592 119.52,370.301 128.448,366.696 137.376,362.888 146.304,358.968 155.232,355.012 164.16,351.086 173.088,347.239 182.016,343.515 190.944,339.944 199.872,336.55 208.8,333.35 217.728,330.356 226.656,327.574 235.584,325.005 244.512,322.649 253.44,320.5 262.368,318.552 271.296,316.798 280.224,315.226 289.152,313.828 298.08,312.591 307.008,311.505 315.936,310.558 324.864,309.738 333.792,309.034 342.72,308.435 351.648,307.932 360.576,307.513 369.504,307.17 378.432,306.894 387.36,306.676 396.288,306.51 405.216,306.388 414.144,306.305 423.072,306.253 432,306.229 440.928,306.227 449.856,306.244 458.784,306.276 467.712,306.32 476.64,306.373 485.568,306.432 494.496,306.496 503.424,306.563 512.352,306.63 521.28,306.698" stroke-linejoin="round" stroke="#0071bc" fill="none" stroke-linecap="butt"/>
  </g>
 </g>
</svg>
